<svg width="18" height="18" viewBox="0 0 18 18" fill="none" xmlns="http://www.w3.org/2000/svg">
<path d="M12.6274 10.3701C12.3204 9.94992 11.8591 9.66877 11.3449 9.58842C10.8307 9.50808 10.3057 9.63512 9.88505 9.94163L9.07804 10.5272C7.91724 9.47687 6.98602 8.19796 6.34278 6.77073L7.14265 6.18511C7.56445 5.87783 7.84718 5.41582 7.92885 4.9004C8.01051 4.38497 7.88444 3.85819 7.57829 3.43557L6.74986 2.28576C6.60038 2.07575 6.41017 1.89797 6.19055 1.76301C5.97092 1.62804 5.72639 1.53866 5.4715 1.50018C4.96796 1.42591 4.45535 1.5515 4.04317 1.85012L2.77195 2.74997C2.36814 3.0414 2.05384 3.43993 1.86455 3.90054C1.67525 4.36115 1.6185 4.86552 1.7007 5.35668C2.06357 7.47144 2.90969 9.4739 4.17319 11.2081C5.43668 12.9423 7.08343 14.3615 8.9852 15.355C9.36747 15.5514 9.79093 15.6542 10.2207 15.655C10.786 15.6565 11.3369 15.4762 11.7919 15.1408L13.0345 14.2838C13.4559 13.9778 13.7384 13.517 13.8201 13.0028C13.9018 12.4885 13.7759 11.9628 13.4702 11.5414L12.6274 10.3701ZM12.4061 13.4053L11.1634 14.2838C10.9218 14.4589 10.6364 14.5636 10.3389 14.5863C10.0413 14.609 9.74334 14.5488 9.47797 14.4123C7.71598 13.4901 6.19199 12.1716 5.02588 10.5606C3.85977 8.94963 3.08334 7.09005 2.75767 5.12815C2.70801 4.83343 2.7419 4.5307 2.85551 4.25427C2.96911 3.97784 3.15788 3.73875 3.40042 3.56412L4.63592 2.71426C4.79067 2.60493 4.97495 2.54516 5.16441 2.54286H5.3001C5.41643 2.56083 5.52807 2.60163 5.62857 2.66292C5.72907 2.7242 5.81647 2.80475 5.88572 2.89995L6.72843 4.07118C6.86599 4.26272 6.92217 4.50092 6.8847 4.73374C6.84724 4.96657 6.71917 5.17511 6.52847 5.31383L5.37152 6.15655C5.27503 6.22732 5.20503 6.32837 5.17267 6.44357C5.14031 6.55877 5.14746 6.68149 5.19297 6.79215C5.94882 8.6643 7.15295 10.3221 8.69953 11.6199C8.79298 11.6941 8.90876 11.7344 9.02805 11.7344C9.14734 11.7344 9.26312 11.6941 9.35657 11.6199L10.5135 10.7843C10.6086 10.7151 10.7164 10.6654 10.8308 10.6379C10.9452 10.6105 11.0638 10.606 11.18 10.6246C11.2961 10.6431 11.4074 10.6845 11.5075 10.7462C11.6076 10.808 11.6946 10.8889 11.7633 10.9843L12.5989 12.1413C12.6698 12.2367 12.7211 12.3453 12.7497 12.4607C12.7784 12.576 12.784 12.696 12.7661 12.8135C12.7481 12.931 12.7071 13.0439 12.6453 13.1455C12.5835 13.247 12.5022 13.3354 12.4061 13.4053ZM9.34942 4.22115C9.37293 4.15161 9.41066 4.08773 9.46021 4.03358C9.50977 3.97943 9.57006 3.93619 9.63725 3.90663C9.70444 3.87707 9.77705 3.86182 9.85045 3.86187C9.92385 3.86192 9.99644 3.87727 10.0636 3.90692C10.8776 4.20792 11.5837 4.74407 12.0924 5.44726C12.601 6.15045 12.8892 6.98895 12.9203 7.85626C12.9241 7.99714 12.8723 8.13386 12.7761 8.23679C12.6798 8.33973 12.5469 8.40059 12.4061 8.40617C12.2676 8.40628 12.1345 8.3528 12.0347 8.25694C11.9348 8.16108 11.876 8.03028 11.8704 7.89197C11.8477 7.23852 11.6321 6.6064 11.2508 6.0752C10.8696 5.544 10.3397 5.13746 9.72793 4.90675C9.6567 4.88883 9.58992 4.85645 9.53174 4.81163C9.47356 4.76681 9.42521 4.71049 9.38971 4.6462C9.35421 4.5819 9.33232 4.51098 9.32539 4.43786C9.31846 4.36474 9.32664 4.29098 9.34942 4.22115ZM15.477 7.72057C15.4889 7.86236 15.4448 8.00317 15.3539 8.1127C15.2631 8.22223 15.1329 8.29171 14.9913 8.30619H14.9413C14.808 8.30517 14.6797 8.25511 14.5809 8.16554C14.4821 8.07597 14.4198 7.95316 14.4057 7.82055C14.3022 6.66472 13.8877 5.55848 13.2062 4.61921C12.5247 3.67995 11.6016 2.94271 10.5349 2.48573C10.4042 2.42985 10.3011 2.32435 10.2482 2.19243C10.1953 2.0605 10.197 1.91297 10.2528 1.78227C10.3087 1.65158 10.4142 1.54844 10.5461 1.49554C10.6781 1.44263 10.8256 1.4443 10.9563 1.50018C12.2034 2.02911 13.2831 2.8875 14.0794 3.98333C14.8758 5.07915 15.3589 6.37108 15.477 7.72057Z" fill="#3F1562"/>
</svg>
