<svg width="22" height="22" viewBox="0 0 22 22" fill="none" xmlns="http://www.w3.org/2000/svg">
<path fill-rule="evenodd" clip-rule="evenodd" d="M1.14844 10.8777C1.14844 6.78373 1.14844 4.73673 2.124 3.26234C2.55964 2.60395 3.12348 2.04011 3.78187 1.60447C5.25626 0.628906 7.30326 0.628906 11.3972 0.628906C15.4912 0.628906 17.5382 0.628906 19.0126 1.60447C19.671 2.04011 20.2349 2.60395 20.6705 3.26234C21.6461 4.73673 21.6461 6.78373 21.6461 10.8777C21.6461 14.9717 21.6461 17.0187 20.6705 18.4931C20.2349 19.1515 19.671 19.7153 19.0126 20.151C17.5382 21.1265 15.4912 21.1265 11.3972 21.1265C7.30326 21.1265 5.25626 21.1265 3.78187 20.151C3.12348 19.7153 2.55964 19.1515 2.124 18.4931C1.14844 17.0187 1.14844 14.9717 1.14844 10.8777ZM16.7056 10.8782C16.7056 13.8086 14.3301 16.1841 11.3997 16.1841C8.4693 16.1841 6.09375 13.8086 6.09375 10.8782C6.09375 7.94781 8.4693 5.57227 11.3997 5.57227C14.3301 5.57227 16.7056 7.94781 16.7056 10.8782ZM11.3997 14.389C13.3386 14.389 14.9105 12.8172 14.9105 10.8782C14.9105 8.93924 13.3386 7.36741 11.3997 7.36741C9.46073 7.36741 7.88889 8.93924 7.88889 10.8782C7.88889 12.8172 9.46073 14.389 11.3997 14.389ZM16.7259 6.5435C17.4288 6.5435 17.9986 5.97368 17.9986 5.27077C17.9986 4.56787 17.4288 3.99805 16.7259 3.99805C16.0229 3.99805 15.4531 4.56787 15.4531 5.27077C15.4531 5.97368 16.0229 6.5435 16.7259 6.5435Z" fill="#3F1562"/>
</svg>
