<svg width="60" height="60" viewBox="0 0 60 60" fill="none" xmlns="http://www.w3.org/2000/svg">
<path d="M51.0019 34.0002C51.0019 26.8164 45.1819 21 38.0017 21C30.8221 21 25.0039 26.8164 25.0039 34.0002C23.3479 34.0002 22.0039 35.3436 22.0039 37.0002V46.9998C22.0039 48.6564 23.3479 49.9998 25.0039 49.9998H31.0039C31.5547 49.9998 32.0017 49.5528 32.0017 49.0002V42C32.0017 40.9002 31.6015 39.195 31.1095 38.211L29.0041 34.0002C29.0041 29.0274 33.0295 25.0002 38.0023 25.0002C42.9709 25.0002 47.0023 29.0274 47.0023 34.0002L44.8969 38.211C44.4049 39.1956 44.0023 40.9002 44.0023 42V49.2306C42.2143 50.386 40.1306 51.0004 38.0017 51H36.0019V54H38.0017C41.8321 54 45.2989 52.4706 47.8453 49.9998H51.0019C51.7976 49.9998 52.5606 49.6837 53.1232 49.1211C53.6858 48.5585 54.0019 47.7955 54.0019 46.9998V37.0002C54.0019 36.2046 53.6858 35.4415 53.1232 34.8789C52.5606 34.3163 51.7976 34.0002 51.0019 34.0002Z" fill="#3F1562"/>
<path d="M37.9998 18C38.6796 18 39.3438 18.0564 40.0002 18.1386V10.0002C40.0002 7.8006 38.199 6 36 6H10.0002C7.8 6 6 7.8006 6 10.0002V22.0002C6 24.1998 7.8 26.0004 10.0002 26.0004V32.0004L20.0004 26.0004H24.1674C26.9382 21.2262 32.0934 18 37.9998 18ZM30 13.9998C30.2627 13.9996 30.5228 14.0511 30.7656 14.1515C31.0083 14.252 31.2289 14.3993 31.4146 14.585C31.6003 14.7707 31.7476 14.9913 31.8481 15.234C31.9485 15.4768 32 15.7369 31.9998 15.9996C31.9998 16.3951 31.8825 16.7818 31.6628 17.1106C31.443 17.4395 31.1307 17.6958 30.7653 17.8472C30.3999 17.9985 29.9978 18.0381 29.6099 17.961C29.2219 17.8838 28.8656 17.6933 28.5859 17.4137C28.3062 17.134 28.1158 16.7777 28.0386 16.3897C27.9615 16.0018 28.0011 15.5997 28.1524 15.2343C28.3038 14.8689 28.5601 14.5566 28.889 14.3368C29.2178 14.1171 29.6045 13.9998 30 13.9998ZM16.0002 18C15.4697 18 14.961 17.7893 14.5859 17.4142C14.2108 17.0391 14.0001 16.5304 14.0001 15.9999C14.0001 15.4694 14.2108 14.9607 14.5859 14.5856C14.961 14.2105 15.4697 13.9998 16.0002 13.9998C16.5307 13.9998 17.0394 14.2105 17.4145 14.5856C17.7896 14.9607 18.0003 15.4694 18.0003 15.9999C18.0003 16.5304 17.7896 17.0391 17.4145 17.4142C17.0394 17.7893 16.5307 18 16.0002 18ZM21 16.0002C21 15.4697 21.2107 14.961 21.5858 14.5859C21.9609 14.2108 22.4696 14.0001 23.0001 14.0001C23.5306 14.0001 24.0393 14.2108 24.4144 14.5859C24.7895 14.961 25.0002 15.4697 25.0002 16.0002C25.0002 16.5307 24.7895 17.0394 24.4144 17.4145C24.0393 17.7896 23.5306 18.0003 23.0001 18.0003C22.4696 18.0003 21.9609 17.7896 21.5858 17.4145C21.2107 17.0394 21 16.5307 21 16.0002Z" fill="#3F1562"/>
</svg>
