<svg width="100" height="100" viewBox="0 0 100 100" fill="none" xmlns="http://www.w3.org/2000/svg">
<path d="M96.9766 25.3633C94.3535 15.6992 84.3027 5.64844 74.6387 3.02539C68.7148 1.54687 60.7754 0.0253906 50 0C39.2266 0.0273438 31.2871 1.54687 25.3633 3.02539C15.6992 5.65039 5.64844 15.6992 3.02539 25.3633C1.54687 31.2871 0.0273438 39.2266 0 50C0.0273438 60.7754 1.54687 68.7148 3.02539 74.6387C5.64844 84.3027 15.6992 94.3516 25.3633 96.9766C31.2871 98.4551 39.2305 99.9746 50 100.002C60.7754 99.9746 68.7148 98.4551 74.6387 96.9766C84.3027 94.3516 94.3535 84.3027 96.9766 74.6387C98.4551 68.7148 99.9746 60.7715 100.002 50C99.9746 39.2266 98.4551 31.2871 96.9766 25.3633Z" fill="#E8DCF2"/>
<path fill-rule="evenodd" clip-rule="evenodd" d="M31.4386 31.4386C40.0311 22.849 53.089 21.4607 63.1252 27.2619C63.7701 27.6609 64.2343 28.2953 64.4193 29.0307C64.6043 29.7661 64.4956 30.5447 64.1162 31.2013C63.7369 31.8579 63.1168 32.341 62.3873 32.5481C61.6578 32.7552 60.8763 32.67 60.2086 32.3107C57.1046 30.522 53.5846 29.5814 50.0021 29.5836C46.4197 29.5858 42.9008 30.5306 39.799 32.323C36.6972 34.1155 34.1217 36.6926 32.3311 39.7955C30.5405 42.8984 29.5978 46.4178 29.5978 50.0003C29.5978 53.5828 30.5405 57.1022 32.3311 60.205C34.1217 63.3079 36.6972 65.885 39.799 67.6775C42.9008 69.47 46.4197 70.4148 50.0021 70.4169C53.5846 70.4191 57.1046 69.4786 60.2086 67.6899C60.8763 67.3305 61.6578 67.2454 62.3873 67.4525C63.1168 67.6596 63.7369 68.1426 64.1162 68.7992C64.4956 69.4559 64.6043 70.2344 64.4193 70.9698C64.2343 71.7052 63.7701 72.3396 63.1252 72.7386C53.089 78.5428 40.0311 77.1544 31.4386 68.5619C29.001 66.1244 27.0674 63.2306 25.7482 60.0458C24.429 56.861 23.75 53.4475 23.75 50.0003C23.75 46.5531 24.429 43.1396 25.7482 39.9548C27.0674 36.7699 29.001 33.8762 31.4386 31.4386ZM68.3548 39.1882C68.9018 38.6414 69.6435 38.3342 70.4169 38.3342C71.1903 38.3342 71.932 38.6414 72.479 39.1882L77.9944 44.7036C78.5165 45.2257 79.024 45.7303 79.4177 46.1969C79.8494 46.7074 80.3161 47.3519 80.5902 48.1978C80.9709 49.3693 80.9709 50.6313 80.5902 51.8028C80.3362 52.5418 79.9376 53.223 79.4177 53.8065C78.9626 54.3214 78.4878 54.8186 77.9944 55.2969L72.4819 60.8124C71.935 61.3596 71.1931 61.6673 70.4194 61.6675C69.6457 61.6678 68.9036 61.3607 68.3563 60.8138C67.809 60.2669 67.5014 59.525 67.5011 58.7513C67.5008 57.9776 67.8079 57.2355 68.3548 56.6882L72.1261 52.9169H50.0002C49.2267 52.9169 48.4848 52.6097 47.9378 52.0627C47.3909 51.5157 47.0836 50.7738 47.0836 50.0003C47.0836 49.2267 47.3909 48.4849 47.9378 47.9379C48.4848 47.3909 49.2267 47.0836 50.0002 47.0836H72.1261L68.3548 43.3124C67.808 42.7654 67.5009 42.0237 67.5009 41.2503C67.5009 40.4769 67.808 39.7352 68.3548 39.1882Z" fill="#3F1562"/>
</svg>
