<svg width="22" height="22" viewBox="0 0 22 22" fill="none" xmlns="http://www.w3.org/2000/svg">
<path d="M18.4219 2.5625H16.625V1.625C16.625 1.27984 16.3452 1 16 1C15.6548 1 15.375 1.27984 15.375 1.625V2.5625H6.625V1.625C6.625 1.27984 6.3452 1 6 1C5.6548 1 5.375 1.27984 5.375 1.625V2.5625H3.57812C2.15652 2.5625 1 3.71902 1 5.14062V18.4219C1 19.8435 2.15652 21 3.57812 21H18.4219C19.8435 21 21 19.8435 21 18.4219V5.14062C21 3.71902 19.8435 2.5625 18.4219 2.5625ZM3.57812 3.8125H5.375V4.4375C5.375 4.78266 5.6548 5.0625 6 5.0625C6.3452 5.0625 6.625 4.78266 6.625 4.4375V3.8125H15.375V4.4375C15.375 4.78266 15.6548 5.0625 16 5.0625C16.3452 5.0625 16.625 4.78266 16.625 4.4375V3.8125H18.4219C19.1542 3.8125 19.75 4.40828 19.75 5.14062V6.625H2.25V5.14062C2.25 4.40828 2.84578 3.8125 3.57812 3.8125ZM18.4219 19.75H3.57812C2.84578 19.75 2.25 19.1542 2.25 18.4219V7.875H19.75V18.4219C19.75 19.1542 19.1542 19.75 18.4219 19.75Z" fill="#3F1562"/>
</svg>
