<svg width="22" height="22" viewBox="0 0 22 22" fill="none" xmlns="http://www.w3.org/2000/svg">
<g clip-path="url(#clip0_606_2595)">
<path d="M14.92 12.9429L11.8526 10.6423V5.95607C11.8526 5.48488 11.4717 5.104 11.0005 5.104C10.5293 5.104 10.1484 5.48488 10.1484 5.95607V11.0684C10.1484 11.3368 10.2746 11.5899 10.4893 11.7501L13.8975 14.3062C14.0445 14.417 14.2237 14.4768 14.4078 14.4766C14.6677 14.4766 14.9233 14.3599 15.0904 14.135C15.3733 13.7592 15.2966 13.2249 14.92 12.9429Z" fill="#3F1562"/>
<path d="M11 0C4.93423 0 0 4.93423 0 11C0 17.0658 4.93423 22 11 22C17.0658 22 22 17.0658 22 11C22 4.93423 17.0658 0 11 0ZM11 20.2959C5.8749 20.2959 1.7041 16.1251 1.7041 11C1.7041 5.8749 5.8749 1.7041 11 1.7041C16.126 1.7041 20.2959 5.8749 20.2959 11C20.2959 16.1251 16.1251 20.2959 11 20.2959Z" fill="#3F1562"/>
</g>
<defs>
<clipPath id="clip0_606_2595">
<rect width="22" height="22" fill="white"/>
</clipPath>
</defs>
</svg>
