<svg width="22" height="22" viewBox="0 0 22 22" fill="none" xmlns="http://www.w3.org/2000/svg">
<g clip-path="url(#clip0_632_3757)">
<path d="M4.19439 11.9024L6.74707 9.34976C7.72356 10.0811 8.94086 10.4154 10.1539 10.2853C11.367 10.1553 12.4857 9.57046 13.2849 8.64868C14.0841 7.7269 14.5045 6.53658 14.4613 5.31733C14.4182 4.09809 13.9148 2.94045 13.0524 2.07747C12.19 1.21449 11.0327 0.710237 9.81352 0.666229C8.5943 0.622221 7.40368 1.04172 6.48133 1.84028C5.55899 2.63884 4.9734 3.75717 4.84247 4.97013C4.71153 6.1831 5.04496 7.40063 5.77564 8.37763L3.22226 10.931L2.25014 9.95819C2.12113 9.82928 1.9462 9.7569 1.76383 9.75696C1.58146 9.75702 1.40658 9.82953 1.27767 9.95854C1.14876 10.0875 1.07637 10.2625 1.07643 10.4448C1.0765 10.6272 1.14901 10.8021 1.27801 10.931L2.25014 11.9038L0.889573 13.2637C0.82391 13.3271 0.771535 13.403 0.735503 13.4869C0.699472 13.5707 0.680507 13.6609 0.679713 13.7522C0.67892 13.8435 0.696315 13.934 0.730883 14.0185C0.765451 14.103 0.8165 14.1798 0.881052 14.2443C0.945603 14.3089 1.02236 14.3599 1.10685 14.3945C1.19135 14.4291 1.28188 14.4465 1.37316 14.4457C1.46445 14.4449 1.55466 14.4259 1.63854 14.3899C1.72242 14.3539 1.79828 14.3015 1.8617 14.2358L3.22226 12.8753L4.19439 13.8474C4.25781 13.913 4.33367 13.9654 4.41754 14.0015C4.50142 14.0375 4.59164 14.0564 4.68292 14.0572C4.77421 14.058 4.86474 14.0406 4.94923 14.0061C5.03372 13.9715 5.11048 13.9205 5.17503 13.8559C5.23958 13.7914 5.29063 13.7146 5.3252 13.6301C5.35977 13.5456 5.37716 13.4551 5.37637 13.3638C5.37558 13.2725 5.35661 13.1823 5.32058 13.0984C5.28455 13.0145 5.23217 12.9387 5.16651 12.8753L4.19439 11.9024ZM9.62564 2.06226C10.3055 2.06226 10.9701 2.26386 11.5354 2.64158C12.1007 3.0193 12.5413 3.55616 12.8015 4.18428C13.0616 4.8124 13.1297 5.50357 12.9971 6.17038C12.8644 6.83719 12.5371 7.44969 12.0563 7.93044C11.5756 8.41118 10.9631 8.73857 10.2963 8.87121C9.62945 9.00384 8.93828 8.93577 8.31016 8.67559C7.68204 8.41542 7.14518 7.97482 6.76746 7.40953C6.38974 6.84423 6.18814 6.17963 6.18814 5.49976C6.18814 4.58807 6.5503 3.71373 7.19496 3.06908C7.83961 2.42442 8.71395 2.06226 9.62564 2.06226Z" fill="#3F1562"/>
<path d="M20.6249 7.5625H17.1874C17.0051 7.5625 16.8302 7.63493 16.7013 7.76386C16.5724 7.8928 16.4999 8.06766 16.4999 8.25C16.4999 8.43234 16.5724 8.6072 16.7013 8.73614C16.8302 8.86507 17.0051 8.9375 17.1874 8.9375H18.9653L15.2528 12.65C14.2761 11.919 13.0587 11.5852 11.8457 11.7158C10.6327 11.8463 9.51419 12.4316 8.71534 13.3536C7.91649 14.2757 7.4966 15.4662 7.54019 16.6854C7.58378 17.9046 8.08762 19.062 8.95028 19.9247C9.81295 20.7873 10.9704 21.2912 12.1896 21.3348C13.4088 21.3783 14.5993 20.9585 15.5213 20.1596C16.4434 19.3608 17.0286 18.2423 17.1592 17.0293C17.2897 15.8163 16.9559 14.5989 16.2249 13.6221L19.9374 9.90962V11.6875C19.9374 11.8698 20.0099 12.0447 20.1388 12.1736C20.2677 12.3026 20.4426 12.375 20.6249 12.375C20.8073 12.375 20.9822 12.3026 21.1111 12.1736C21.24 12.0447 21.3124 11.8698 21.3124 11.6875V8.25C21.3124 8.06766 21.24 7.8928 21.1111 7.76386C20.9822 7.63493 20.8073 7.5625 20.6249 7.5625ZM12.3749 19.9375C11.6951 19.9375 11.0305 19.7359 10.4652 19.3582C9.89988 18.9805 9.45929 18.4436 9.19911 17.8155C8.93894 17.1874 8.87086 16.4962 9.0035 15.8294C9.13614 15.1626 9.46353 14.5501 9.94427 14.0693C10.425 13.5886 11.0375 13.2612 11.7043 13.1286C12.3711 12.9959 13.0623 13.064 13.6904 13.3242C14.3185 13.5843 14.8554 14.0249 15.2331 14.5902C15.6108 15.1555 15.8124 15.8201 15.8124 16.5C15.8124 16.9514 15.7235 17.3984 15.5508 17.8155C15.378 18.2325 15.1248 18.6115 14.8056 18.9307C14.4864 19.2499 14.1075 19.5031 13.6904 19.6758C13.2734 19.8486 12.8264 19.9375 12.3749 19.9375Z" fill="#3F1562"/>
</g>
<defs>
<clipPath id="clip0_632_3757">
<rect width="22" height="22" fill="white"/>
</clipPath>
</defs>
</svg>
