<svg width="24" height="24" viewBox="0 0 24 24" fill="none" xmlns="http://www.w3.org/2000/svg">
<path d="M20.2183 4.634C18.7923 2.985 15.7203 2 12.0003 2C8.28031 2 5.20831 2.984 3.78231 4.634C1.41631 7.371 1.41631 14.629 3.78231 17.367C4.25382 17.8826 4.81021 18.3135 5.42731 18.641L5.75931 20.64C5.81396 20.9697 5.9504 21.2804 6.15615 21.5438C6.3619 21.8071 6.63039 22.0147 6.93707 22.1475C7.24375 22.2803 7.57883 22.3341 7.91167 22.304C8.2445 22.2738 8.56447 22.1607 8.84231 21.975L11.5743 20.152C11.7412 20.0449 11.936 19.9893 12.1343 19.992C15.7963 19.967 18.8173 18.985 20.2183 17.366C22.5843 14.629 22.5843 7.371 20.2183 4.634ZM12.0003 5.75C12.2475 5.75 12.4892 5.82331 12.6948 5.96066C12.9003 6.09802 13.0606 6.29324 13.1552 6.52165C13.2498 6.75005 13.2745 7.00139 13.2263 7.24386C13.1781 7.48634 13.059 7.70907 12.8842 7.88388C12.7094 8.0587 12.4867 8.17775 12.2442 8.22598C12.0017 8.27421 11.7504 8.24946 11.522 8.15485C11.2936 8.06024 11.0983 7.90002 10.961 7.69446C10.8236 7.4889 10.7503 7.24723 10.7503 7C10.7503 6.66848 10.882 6.35054 11.1164 6.11612C11.3509 5.8817 11.6688 5.75 12.0003 5.75ZM13.0003 16.5H11.0003C10.7351 16.5 10.4807 16.3946 10.2932 16.2071C10.1057 16.0196 10.0003 15.7652 10.0003 15.5C10.0003 15.2348 10.1057 14.9804 10.2932 14.7929C10.4807 14.6054 10.7351 14.5 11.0003 14.5V11.5C10.7351 11.5 10.4807 11.3946 10.2932 11.2071C10.1057 11.0196 10.0003 10.7652 10.0003 10.5C10.0003 10.2348 10.1057 9.98043 10.2932 9.79289C10.4807 9.60536 10.7351 9.5 11.0003 9.5H12.0003C12.2655 9.5 12.5199 9.60536 12.7074 9.79289C12.895 9.98043 13.0003 10.2348 13.0003 10.5V14.5C13.2655 14.5 13.5199 14.6054 13.7074 14.7929C13.895 14.9804 14.0003 15.2348 14.0003 15.5C14.0003 15.7652 13.895 16.0196 13.7074 16.2071C13.5199 16.3946 13.2655 16.5 13.0003 16.5Z" fill="#3F1562"/>
</svg>
