<svg width="24" height="24" viewBox="0 0 24 24" fill="none" xmlns="http://www.w3.org/2000/svg">
<path d="M20.88 7.38875L20.815 7.4175C19.3575 8.06625 17.8437 8.5375 16.2912 8.8475C16.7298 10.9285 16.7289 13.0781 16.2887 15.1588C17.8412 15.4675 19.3625 15.935 20.8137 16.5813L20.8775 16.61C21.5912 15.2287 22 13.6637 22 12C22 10.3363 21.5912 8.77125 20.88 7.38875ZM9.27 16.1862C9.8225 17.945 10.7338 19.6112 11.9987 21.0837C13.2638 19.6112 14.1763 17.945 14.7275 16.1862C12.9163 15.9462 11.0813 15.9475 9.27 16.1862ZM15.0525 9.0425C14.0475 9.18375 13.0325 9.28 12 9.28C10.9663 9.28 9.95125 9.1825 8.94625 9.0425C8.525 10.995 8.525 13.015 8.94875 14.9675C10.9728 14.6862 13.026 14.6862 15.05 14.9675C15.4739 13.0153 15.4748 10.995 15.0525 9.0425ZM11.9987 2.91625C10.7338 4.38875 9.8225 6.055 9.27 7.815C11.0813 8.05375 12.9162 8.05375 14.7275 7.815C14.175 6.05625 13.2638 4.38875 11.9987 2.91625ZM12.8612 2C14.3288 3.68 15.3738 5.59625 15.9813 7.62C17.4388 7.335 18.8663 6.90125 20.2288 6.3C18.5788 3.90125 15.9163 2.2625 12.8612 2ZM3.77 6.3C5.13375 6.9 6.56125 7.335 8.0175 7.62C8.625 5.59625 9.67 3.68 11.1375 2C8.0825 2.2625 5.42125 3.90125 3.77 6.3ZM7.70875 8.84875C6.15625 8.5375 4.64375 8.0675 3.1875 7.41875L3.1225 7.39C2.40875 8.77125 2 10.3363 2 12C2 13.6637 2.40875 15.2288 3.1225 16.6112L3.1875 16.5825C4.6375 15.935 6.15875 15.4675 7.71125 15.16C7.27 13.08 7.27 10.93 7.70875 8.84875ZM8.0175 16.3813C6.56 16.665 5.1325 17.1 3.77 17.7C5.42125 20.0988 8.0825 21.7375 11.1375 22C9.67 20.32 8.625 18.4037 8.0175 16.3813ZM15.9813 16.38C15.375 18.4037 14.3288 20.32 12.8612 22C15.9163 21.7375 18.5788 20.0988 20.2288 17.7C18.8663 17.0988 17.4388 16.665 15.9813 16.38Z" fill="#3F1562"/>
</svg>
