<svg width="22" height="22" viewBox="0 0 22 22" fill="none" xmlns="http://www.w3.org/2000/svg">
<path d="M17.5797 2.72534C15.8223 0.967871 13.4856 0 11.0002 0C8.5148 0 6.17807 0.967871 4.42065 2.72534C2.66318 4.48284 1.69531 6.81948 1.69531 9.30484C1.69531 14.3327 6.44929 18.5146 9.00331 20.7613C9.35823 21.0735 9.66473 21.3431 9.90892 21.5712C10.2149 21.857 10.6075 21.9999 11.0002 21.9999C11.3928 21.9999 11.7854 21.857 12.0914 21.5712C12.3356 21.3431 12.6421 21.0735 12.997 20.7613C15.5511 18.5146 20.305 14.3327 20.305 9.30484C20.305 6.81948 19.3372 4.48284 17.5797 2.72534ZM12.1458 19.7937C11.7831 20.1128 11.4699 20.3883 11.2117 20.6295C11.0931 20.7402 10.9073 20.7403 10.7886 20.6295C10.5304 20.3882 10.2171 20.1127 9.85443 19.7937C7.45334 17.6816 2.98395 13.75 2.98395 9.30488C2.98395 4.88477 6.57996 1.28876 11.0001 1.28876C15.4202 1.28876 19.0162 4.88477 19.0162 9.30488C19.0163 13.75 14.5469 17.6816 12.1458 19.7937Z" fill="#3F1562"/>
<path d="M10.999 4.85303C8.73793 4.85303 6.89844 6.69248 6.89844 8.95354C6.89844 11.2146 8.73793 13.054 10.999 13.054C13.26 13.054 15.0995 11.2146 15.0995 8.95354C15.0995 6.69248 13.26 4.85303 10.999 4.85303ZM10.999 11.7653C9.44855 11.7653 8.18716 10.5039 8.18716 8.95349C8.18716 7.40309 9.44855 6.1417 10.999 6.1417C12.5494 6.1417 13.8108 7.40309 13.8108 8.95349C13.8108 10.5039 12.5494 11.7653 10.999 11.7653Z" fill="#3F1562"/>
</svg>
