<svg width="22" height="22" viewBox="0 0 22 22" fill="none" xmlns="http://www.w3.org/2000/svg">
<path d="M20.625 19.9377V9.0498C20.625 8.22961 19.9581 7.56274 19.1379 7.56274H15.125V2.56874C15.125 2.50961 15.1119 1.76643 14.4657 1.3333C13.8194 0.900863 13.1271 1.17174 13.0721 1.19374L2.98306 5.3483C2.71025 5.45991 2.47692 5.65037 2.31294 5.89531C2.14895 6.14025 2.06175 6.42854 2.0625 6.7233V19.9377H1.375C1.19266 19.9377 1.0178 20.0102 0.888864 20.1391C0.759933 20.268 0.6875 20.4429 0.6875 20.6252C0.6875 20.8076 0.759933 20.9824 0.888864 21.1114C1.0178 21.2403 1.19266 21.3127 1.375 21.3127H20.625C20.8073 21.3127 20.9822 21.2403 21.1111 21.1114C21.2401 20.9824 21.3125 20.8076 21.3125 20.6252C21.3125 20.4429 21.2401 20.268 21.1111 20.1391C20.9822 20.0102 20.8073 19.9377 20.625 19.9377ZM3.4375 6.7233C3.4375 6.67793 3.465 6.63736 3.50694 6.62018L13.596 2.4663C13.6128 2.45871 13.6313 2.45567 13.6496 2.45748C13.668 2.45929 13.6855 2.46589 13.7005 2.47661C13.7162 2.48616 13.7291 2.49974 13.7378 2.51594C13.7465 2.53213 13.7507 2.55036 13.75 2.56874V19.9377H3.4375V6.7233ZM15.125 19.9377V8.93774H19.1379C19.1998 8.93774 19.25 8.98793 19.25 9.0498V19.9377H15.125Z" fill="#3F1562"/>
<path d="M10.3125 16.5H6.875C6.69266 16.5 6.5178 16.5724 6.38886 16.7014C6.25993 16.8303 6.1875 17.0052 6.1875 17.1875C6.1875 17.3698 6.25993 17.5447 6.38886 17.6736C6.5178 17.8026 6.69266 17.875 6.875 17.875H10.3125C10.4948 17.875 10.6697 17.8026 10.7986 17.6736C10.9276 17.5447 11 17.3698 11 17.1875C11 17.0052 10.9276 16.8303 10.7986 16.7014C10.6697 16.5724 10.4948 16.5 10.3125 16.5ZM10.3125 13.75H6.875C6.69266 13.75 6.5178 13.8224 6.38886 13.9514C6.25993 14.0803 6.1875 14.2552 6.1875 14.4375C6.1875 14.6198 6.25993 14.7947 6.38886 14.9236C6.5178 15.0526 6.69266 15.125 6.875 15.125H10.3125C10.4948 15.125 10.6697 15.0526 10.7986 14.9236C10.9276 14.7947 11 14.6198 11 14.4375C11 14.2552 10.9276 14.0803 10.7986 13.9514C10.6697 13.8224 10.4948 13.75 10.3125 13.75ZM10.3125 11H6.875C6.69266 11 6.5178 11.0724 6.38886 11.2014C6.25993 11.3303 6.1875 11.5052 6.1875 11.6875C6.1875 11.8698 6.25993 12.0447 6.38886 12.1736C6.5178 12.3026 6.69266 12.375 6.875 12.375H10.3125C10.4948 12.375 10.6697 12.3026 10.7986 12.1736C10.9276 12.0447 11 11.8698 11 11.6875C11 11.5052 10.9276 11.3303 10.7986 11.2014C10.6697 11.0724 10.4948 11 10.3125 11ZM10.3125 8.25H6.875C6.69266 8.25 6.5178 8.32243 6.38886 8.45136C6.25993 8.5803 6.1875 8.75516 6.1875 8.9375C6.1875 9.11984 6.25993 9.2947 6.38886 9.42364C6.5178 9.55257 6.69266 9.625 6.875 9.625H10.3125C10.4948 9.625 10.6697 9.55257 10.7986 9.42364C10.9276 9.2947 11 9.11984 11 8.9375C11 8.75516 10.9276 8.5803 10.7986 8.45136C10.6697 8.32243 10.4948 8.25 10.3125 8.25Z" fill="#3F1562"/>
</svg>
