<svg width="22" height="22" viewBox="0 0 22 22" fill="none" xmlns="http://www.w3.org/2000/svg">
<g clip-path="url(#clip0_988_4894)">
<path d="M21.8111 15.0985L20.1071 13.3944V7.54936L21.2195 7.14829C21.3442 7.10339 21.4521 7.02112 21.5283 6.91271C21.6046 6.8043 21.6455 6.67501 21.6456 6.54247C21.6457 6.40993 21.6049 6.28058 21.5288 6.17206C21.4527 6.06354 21.345 5.98112 21.2204 5.93604L11.0421 2.24993C10.9003 2.19859 10.745 2.19859 10.6032 2.24993L0.424909 5.93604C0.300795 5.98103 0.193488 6.06304 0.117496 6.17099C0.0415039 6.27894 0.000491775 6.40762 4.39483e-06 6.53964C-0.000482986 6.67165 0.0395779 6.80063 0.114771 6.90914C0.189964 7.01765 0.296662 7.10045 0.42044 7.14636L4.1768 8.53785V12.7852C4.1768 12.917 4.21718 13.0457 4.29259 13.1538C4.33405 13.2132 4.72679 13.7495 5.73233 14.2557C7.00267 14.8952 8.66884 15.2194 10.6845 15.2194C12.6987 15.2194 14.3733 14.8958 15.6617 14.2576C16.6772 13.7546 17.083 13.2239 17.126 13.1651C17.2064 13.0548 17.2497 12.9218 17.2497 12.7852V8.57944L18.8182 8.01398V13.3944L17.1141 15.0985C16.9932 15.2194 16.9254 15.3833 16.9254 15.5542C16.9254 15.7251 16.9932 15.889 17.1141 16.0099L18.8182 17.7139V19.1436C18.8182 19.4995 19.1067 19.7881 19.4626 19.7881C19.8185 19.7881 20.1071 19.4995 20.1071 19.1436V17.7139L21.8111 16.0099C22.0628 15.7583 22.0628 15.3502 21.8111 15.0985ZM10.8227 3.54132L19.1046 6.54064L10.6875 9.57519L2.51806 6.54885L10.8227 3.54132ZM15.9608 12.5283C13.7576 14.5108 7.2107 14.2835 5.46573 12.5348V9.01536L10.4606 10.8657C10.5399 10.8782 10.6147 10.9466 10.903 10.8677L15.9608 9.04423L15.9608 12.5283ZM19.4626 16.5356L18.4811 15.5542L19.4626 14.5728L20.444 15.5542L19.4626 16.5356Z" fill="#3F1562"/>
</g>
<defs>
<clipPath id="clip0_988_4894">
<rect width="22" height="22" fill="white"/>
</clipPath>
</defs>
</svg>
