<svg width="24" height="24" viewBox="0 0 24 24" fill="none" xmlns="http://www.w3.org/2000/svg">
<path d="M15.1055 19.3359C15.1055 19.5797 15.0164 19.8047 14.8617 19.9734H6.57421C6.02578 19.3828 6.48046 18.3516 7.29609 18.3703H14.1398C14.6742 18.3703 15.1055 18.8016 15.1055 19.3359ZM6.57421 20.625C6.02578 21.2156 6.48046 22.2469 7.29609 22.2281H14.1398C14.9555 22.2469 15.4102 21.2109 14.857 20.625H6.57421ZM9.29765 23.9062H12.143C12.7523 23.9062 13.2539 23.4609 13.3523 22.8797H8.08828C8.18671 23.4609 8.68828 23.9062 9.29765 23.9062ZM15.4523 14.3063C14.4492 15.1781 13.8352 16.4062 13.7086 17.7188H11.632V4.59375C11.632 4.31719 11.8664 4.09688 12.143 4.12031C17.2711 4.575 19.2727 11.0109 15.4523 14.3063ZM16.3617 9.91875C16.3758 7.95 15.082 6.10313 13.2164 5.46094C13.0242 5.39062 12.8039 5.49375 12.7383 5.69063C12.668 5.8875 12.7664 6.09844 12.9633 6.16875C14.5289 6.70781 15.6211 8.25938 15.607 9.91875C15.6164 10.4109 16.357 10.4109 16.3617 9.91875ZM6.82265 15.4875C7.0664 15.2344 7.61953 14.9062 7.82578 15.3703C7.90078 15.5625 7.80234 15.7828 7.60546 15.8578C6.76171 16.2422 7.19765 17.3813 7.72265 17.7188H9.40546C9.7664 17.4562 10.0008 17.0344 10.0008 16.5563V5.92969C9.9914 4.39687 7.8914 3.94688 7.26328 5.33906C7.76953 5.4375 9.26484 6.7125 8.1914 6.95156C7.83515 6.9375 7.75546 6.46406 7.47421 6.30469C6.06328 5.18906 4.05703 6.71719 4.6664 8.34375C5.3039 8.22656 6.14296 8.54062 6.56953 9.07969C6.78046 9.30937 6.58828 9.70781 6.28359 9.69844C6.17578 9.69844 6.07265 9.65156 5.99765 9.5625C5.89921 9.44531 5.6789 9.22969 5.33203 9.13125C5.08828 9.05156 4.75078 9.07031 4.5539 9.13594C2.60859 9.70312 2.44921 12.4688 4.30546 13.2609C4.55859 12.8531 6.03984 11.7234 6.30703 12.5156C6.35859 12.7172 6.23203 12.9234 6.03515 12.9703C3.89765 13.5 4.19296 16.5 6.39609 16.5609C6.40078 16.1953 6.51796 15.7922 6.82265 15.4875ZM16.6805 5.30156C16.7789 5.30156 16.8727 5.26406 16.9477 5.19375L18.6867 3.45469C19.0289 3.09844 18.5086 2.57812 18.157 2.925L16.418 4.66406C16.1742 4.88438 16.357 5.31094 16.6805 5.30156ZM21.2273 9.59531H18.7711C18.2742 9.60469 18.2789 10.3406 18.7711 10.3453H21.2273C21.7242 10.3406 21.7195 9.60469 21.2273 9.59531ZM16.943 14.7562C16.5867 14.4141 16.0664 14.9344 16.4133 15.2859L18.1523 17.025C18.5039 17.3719 19.0289 16.8422 18.682 16.4953C18.682 16.4906 16.943 14.7562 16.943 14.7562ZM11.632 3.21094C11.8383 3.21094 12.007 3.04219 12.007 2.83594V0.375C12.007 0.16875 11.8383 0 11.632 0C11.4258 0 11.257 0.16875 11.257 0.375V2.83125C11.257 3.04219 11.4258 3.21094 11.632 3.21094Z" fill="#3F1562"/>
</svg>
