<svg width="22" height="22" viewBox="0 0 22 22" fill="none" xmlns="http://www.w3.org/2000/svg">
<path d="M20.7999 19.7921L17.3468 16.3383C18.9103 14.5141 19.7064 12.1552 19.568 9.75664C19.4296 7.3581 18.3676 5.10637 16.6048 3.47402C14.8419 1.84166 12.5154 0.955576 10.1133 1.00172C7.71118 1.04786 5.42033 2.02263 3.72148 3.72148C2.02263 5.42033 1.04786 7.71118 1.00172 10.1133C0.955576 12.5154 1.84166 14.8419 3.47402 16.6048C5.10637 18.3676 7.3581 19.4296 9.75664 19.568C12.1552 19.7064 14.5141 18.9103 16.3383 17.3468L19.7921 20.7999C19.9266 20.9298 20.1066 21.0016 20.2935 21C20.4803 20.9983 20.6591 20.9234 20.7912 20.7912C20.9234 20.6591 20.9983 20.4803 21 20.2935C21.0016 20.1066 20.9298 19.9266 20.7999 19.7921ZM2.47808 10.318C2.47808 8.7674 2.93788 7.25163 3.79934 5.96237C4.6608 4.6731 5.88523 3.66824 7.31778 3.07486C8.75034 2.48147 10.3267 2.32622 11.8475 2.62872C13.3683 2.93123 14.7652 3.67791 15.8616 4.77434C16.9581 5.87077 17.7047 7.2677 18.0072 8.78849C18.3097 10.3093 18.1545 11.8856 17.5611 13.3182C16.9677 14.7507 15.9629 15.9752 14.6736 16.8366C13.3843 17.6981 11.8686 18.1579 10.318 18.1579C8.23946 18.1554 6.24678 17.3287 4.77704 15.8589C3.30731 14.3892 2.48053 12.3965 2.47808 10.318Z" fill="#3F1562"/>
<path d="M12.3792 10.1375C12.7647 9.73377 13.0232 9.22572 13.1226 8.6764C13.222 8.12708 13.158 7.56066 12.9384 7.04742C12.7188 6.53417 12.3534 6.09668 11.8875 5.78922C11.4215 5.48177 10.8756 5.31787 10.3173 5.31787C9.75908 5.31787 9.21312 5.48177 8.74718 5.78922C8.28123 6.09668 7.91581 6.53417 7.69624 7.04742C7.47667 7.56066 7.41261 8.12708 7.51202 8.6764C7.61142 9.22572 7.86992 9.73377 8.25543 10.1375C7.58516 10.5064 7.02614 11.0484 6.63664 11.7069C6.24715 12.3654 6.04146 13.1163 6.04102 13.8814C6.04102 14.0705 6.11611 14.2517 6.24977 14.3854C6.38343 14.5191 6.56471 14.5941 6.75373 14.5941C6.94276 14.5941 7.12404 14.5191 7.2577 14.3854C7.39136 14.2517 7.46645 14.0705 7.46645 13.8814C7.46645 13.1253 7.76681 12.4002 8.30145 11.8656C8.8361 11.3309 9.56123 11.0306 10.3173 11.0306C11.0734 11.0306 11.7986 11.3309 12.3332 11.8656C12.8678 12.4002 13.1682 13.1253 13.1682 13.8814C13.1682 14.0705 13.2433 14.2517 13.3769 14.3854C13.5106 14.5191 13.6919 14.5941 13.8809 14.5941C14.0699 14.5941 14.2512 14.5191 14.3849 14.3854C14.5185 14.2517 14.5936 14.0705 14.5936 13.8814C14.5932 13.1163 14.3875 12.3654 13.998 11.7069C13.6085 11.0484 13.0495 10.5064 12.3792 10.1375ZM8.89189 8.17968C8.89189 7.89776 8.97549 7.62216 9.13212 7.38775C9.28875 7.15334 9.51137 6.97064 9.77183 6.86275C10.0323 6.75486 10.3189 6.72663 10.5954 6.78163C10.8719 6.83663 11.1259 6.97239 11.3253 7.17175C11.5246 7.3711 11.6604 7.62508 11.7154 7.90159C11.7704 8.1781 11.7421 8.46471 11.6343 8.72517C11.5264 8.98564 11.3437 9.20826 11.1093 9.36489C10.8748 9.52152 10.5993 9.60512 10.3173 9.60512C9.93928 9.60512 9.57671 9.45494 9.30939 9.18762C9.04207 8.9203 8.89189 8.55773 8.89189 8.17968Z" fill="#3F1562"/>
</svg>
