<svg width="24" height="24" viewBox="0 0 24 24" fill="none" xmlns="http://www.w3.org/2000/svg">
<path d="M22.5 21.243H22.3V10.28C22.3 9.99998 22.08 9.77998 21.8 9.77998H13.129V2.25698C13.129 2.16989 13.1063 2.08431 13.063 2.00872C13.0198 1.93312 12.9576 1.87013 12.8825 1.82598C12.8074 1.78183 12.7221 1.75805 12.635 1.75699C12.548 1.75594 12.4621 1.77765 12.386 1.81998L2.07 7.55098C1.99269 7.59397 1.92817 7.6567 1.88302 7.73277C1.83787 7.80884 1.81371 7.89552 1.813 7.98398L1.705 21.243H1.5C1.36739 21.243 1.24021 21.2957 1.14645 21.3894C1.05268 21.4832 1 21.6104 1 21.743C1 21.8756 1.05268 22.0028 1.14645 22.0965C1.24021 22.1903 1.36739 22.243 1.5 22.243H22.5C22.6326 22.243 22.7598 22.1903 22.8536 22.0965C22.9473 22.0028 23 21.8756 23 21.743C23 21.6104 22.9473 21.4832 22.8536 21.3894C22.7598 21.2957 22.6326 21.243 22.5 21.243ZM17.86 21.24H16.57V17.66H17.86V21.24ZM13.13 10.78H21.3V21.24H18.86V17.16C18.86 16.88 18.64 16.66 18.36 16.66H16.07C15.79 16.66 15.57 16.88 15.57 17.16V21.24H13.13V10.78ZM2.81 8.28398L12.129 3.10698V21.243H9.69V17.16C9.69 16.88 9.47 16.66 9.19 16.66H5.75C5.48 16.66 5.25 16.88 5.25 17.16V21.243H2.705L2.81 8.28398ZM6.25 21.24V17.66H8.69V21.24H6.25Z" fill="white"/>
<path d="M9.18947 10.78H10.3355C10.4681 10.78 10.5953 10.7273 10.689 10.6335C10.7828 10.5398 10.8355 10.4126 10.8355 10.28C10.8355 10.1474 10.7828 10.0202 10.689 9.92642C10.5953 9.83265 10.4681 9.77997 10.3355 9.77997H9.18947C9.05686 9.77997 8.92968 9.83265 8.83592 9.92642C8.74215 10.0202 8.68947 10.1474 8.68947 10.28C8.68947 10.4126 8.74215 10.5398 8.83592 10.6335C8.92968 10.7273 9.05686 10.78 9.18947 10.78ZM4.60547 10.78H5.75147C5.88408 10.78 6.01125 10.7273 6.10502 10.6335C6.19879 10.5398 6.25147 10.4126 6.25147 10.28C6.25147 10.1474 6.19879 10.0202 6.10502 9.92642C6.01125 9.83265 5.88408 9.77997 5.75147 9.77997H4.60547C4.47286 9.77997 4.34568 9.83265 4.25192 9.92642C4.15815 10.0202 4.10547 10.1474 4.10547 10.28C4.10547 10.4126 4.15815 10.5398 4.25192 10.6335C4.34568 10.7273 4.47286 10.78 4.60547 10.78ZM9.18947 13.073H10.3355C10.4681 13.073 10.5953 13.0203 10.689 12.9265C10.7828 12.8328 10.8355 12.7056 10.8355 12.573C10.8355 12.4404 10.7828 12.3132 10.689 12.2194C10.5953 12.1256 10.4681 12.073 10.3355 12.073H9.18947C9.05686 12.073 8.92968 12.1256 8.83592 12.2194C8.74215 12.3132 8.68947 12.4404 8.68947 12.573C8.68947 12.7056 8.74215 12.8328 8.83592 12.9265C8.92968 13.0203 9.05686 13.073 9.18947 13.073ZM4.60547 13.073H5.75147C5.88408 13.073 6.01125 13.0203 6.10502 12.9265C6.19879 12.8328 6.25147 12.7056 6.25147 12.573C6.25147 12.4404 6.19879 12.3132 6.10502 12.2194C6.01125 12.1256 5.88408 12.073 5.75147 12.073H4.60547C4.47286 12.073 4.34568 12.1256 4.25192 12.2194C4.15815 12.3132 4.10547 12.4404 4.10547 12.573C4.10547 12.7056 4.15815 12.8328 4.25192 12.9265C4.34568 13.0203 4.47286 13.073 4.60547 13.073ZM9.18947 15.366H10.3355C10.4681 15.366 10.5953 15.3133 10.689 15.2195C10.7828 15.1258 10.8355 14.9986 10.8355 14.866C10.8355 14.7334 10.7828 14.6062 10.689 14.5124C10.5953 14.4186 10.4681 14.366 10.3355 14.366H9.18947C9.05686 14.366 8.92968 14.4186 8.83592 14.5124C8.74215 14.6062 8.68947 14.7334 8.68947 14.866C8.68947 14.9986 8.74215 15.1258 8.83592 15.2195C8.92968 15.3133 9.05686 15.366 9.18947 15.366ZM5.75147 15.366C5.88408 15.366 6.01125 15.3133 6.10502 15.2195C6.19879 15.1258 6.25147 14.9986 6.25147 14.866C6.25147 14.7334 6.19879 14.6062 6.10502 14.5124C6.01125 14.4186 5.88408 14.366 5.75147 14.366H4.60547C4.47286 14.366 4.34568 14.4186 4.25192 14.5124C4.15815 14.6062 4.10547 14.7334 4.10547 14.866C4.10547 14.9986 4.15815 15.1258 4.25192 15.2195C4.34568 15.3133 4.47286 15.366 4.60547 15.366H5.75147ZM16.0665 15.366C16.1991 15.366 16.3263 15.3133 16.42 15.2195C16.5138 15.1258 16.5665 14.9986 16.5665 14.866C16.5665 14.7334 16.5138 14.6062 16.42 14.5124C16.3263 14.4186 16.1991 14.366 16.0665 14.366H14.9205C14.7879 14.366 14.6607 14.4186 14.5669 14.5124C14.4731 14.6062 14.4205 14.7334 14.4205 14.866C14.4205 14.9986 14.4731 15.1258 14.5669 15.2195C14.6607 15.3133 14.7879 15.366 14.9205 15.366H16.0665ZM18.3595 15.366H19.5055C19.6381 15.366 19.7653 15.3133 19.859 15.2195C19.9528 15.1258 20.0055 14.9986 20.0055 14.866C20.0055 14.7334 19.9528 14.6062 19.859 14.5124C19.7653 14.4186 19.6381 14.366 19.5055 14.366H18.3595C18.2269 14.366 18.0997 14.4186 18.0059 14.5124C17.9121 14.6062 17.8595 14.7334 17.8595 14.866C17.8595 14.9986 17.9121 15.1258 18.0059 15.2195C18.0997 15.3133 18.2269 15.366 18.3595 15.366ZM14.9195 13.073H16.0665C16.1991 13.073 16.3263 13.0203 16.42 12.9265C16.5138 12.8328 16.5665 12.7056 16.5665 12.573C16.5665 12.4404 16.5138 12.3132 16.42 12.2194C16.3263 12.1256 16.1991 12.073 16.0665 12.073H14.9205C14.7879 12.073 14.6607 12.1256 14.5669 12.2194C14.4731 12.3132 14.4205 12.4404 14.4205 12.573C14.4205 12.7056 14.4731 12.8328 14.5669 12.9265C14.6607 13.0203 14.7869 13.073 14.9195 13.073ZM18.3595 13.073H19.5055C19.6381 13.073 19.7653 13.0203 19.859 12.9265C19.9528 12.8328 20.0055 12.7056 20.0055 12.573C20.0055 12.4404 19.9528 12.3132 19.859 12.2194C19.7653 12.1256 19.6381 12.073 19.5055 12.073H18.3595C18.2269 12.073 18.0997 12.1256 18.0059 12.2194C17.9121 12.3132 17.8595 12.4404 17.8595 12.573C17.8595 12.7056 17.9121 12.8328 18.0059 12.9265C18.0997 13.0203 18.2269 13.073 18.3595 13.073Z" fill="white"/>
</svg>
