<svg width="100" height="100" viewBox="0 0 100 100" fill="none" xmlns="http://www.w3.org/2000/svg">
<g clip-path="url(#clip0_988_3231)">
<path d="M96.9766 25.3633C94.3535 15.6992 84.3027 5.64844 74.6387 3.02539C68.7148 1.54687 60.7754 0.0253906 50 0C39.2266 0.0273438 31.2871 1.54687 25.3633 3.02539C15.6992 5.65039 5.64844 15.6992 3.02539 25.3633C1.54687 31.2871 0.0273438 39.2266 0 50C0.0273438 60.7754 1.54687 68.7148 3.02539 74.6387C5.64844 84.3027 15.6992 94.3516 25.3633 96.9766C31.2871 98.4551 39.2305 99.9746 50 100.002C60.7754 99.9746 68.7148 98.4551 74.6387 96.9766C84.3027 94.3516 94.3535 84.3027 96.9766 74.6387C98.4551 68.7148 99.9746 60.7715 100.002 50C99.9746 39.2266 98.4551 31.2871 96.9766 25.3633Z" fill="#E8DCF2"/>
<path d="M79.5794 21.7854C78.6157 21.7854 77.6915 22.1681 77.0099 22.8494C76.3283 23.5306 75.9451 24.4546 75.9446 25.4183V29.2444C71.4804 23.6705 65.3387 19.6838 58.4303 17.8755C51.5218 16.0672 44.2145 16.5336 37.5919 19.2055C30.9694 21.8775 25.3844 26.6127 21.6651 32.7089C17.9459 38.8052 16.2904 45.9378 16.9442 53.049C17.5981 60.1602 20.5264 66.8713 25.295 72.1871C30.0636 77.5029 36.4184 81.1403 43.4172 82.5598C50.4159 83.9793 57.6857 83.1054 64.1486 80.0677C70.6115 77.0299 75.9233 71.9901 79.2962 65.6956C79.752 64.8466 79.8519 63.8513 79.5739 62.9286C79.4362 62.4718 79.2099 62.0465 78.9079 61.6771C78.6059 61.3077 78.2341 61.0014 77.8137 60.7757C76.9647 60.3198 75.9694 60.2199 75.0468 60.4979C74.1241 60.7759 73.3497 61.4091 72.8938 62.2581C70.6759 66.4004 67.3745 69.8625 63.3421 72.2746C59.3098 74.6867 54.698 75.9582 49.9993 75.9534C35.6887 75.9534 24.0481 64.3108 24.0481 50.0003C24.0481 35.6897 35.6966 24.0491 49.9993 24.0491C54.0194 24.0463 57.9852 24.9776 61.5838 26.7697C65.1824 28.5617 68.3154 31.1653 70.7356 34.3753H67.0462C66.097 34.3973 65.1941 34.7898 64.5306 35.4689C63.8671 36.1479 63.4956 37.0597 63.4956 38.0091C63.4956 38.9585 63.8671 39.8702 64.5306 40.5493C65.1941 41.2284 66.097 41.6209 67.0462 41.6429H78.3489C79.6384 41.6408 80.8745 41.1275 81.7862 40.2155C82.6978 39.3035 83.2106 38.0672 83.2122 36.7776V25.4104C83.2101 24.4483 82.8265 23.5263 82.1454 22.8467C81.4643 22.1671 80.5415 21.7854 79.5794 21.7854Z" fill="url(#paint0_linear_988_3231)"/>
<path d="M63.9707 49.8619V49.819C63.8612 48.7629 63.4768 47.754 62.8559 46.8928C62.2349 46.0316 61.399 45.3482 60.4316 44.9108C60.4043 43.3248 60.3418 41.0436 60.2363 40.069C60.0632 38.4116 59.326 36.864 58.148 35.6853C56.97 34.5066 55.4229 33.7685 53.7656 33.5944H53.7285L53.3281 33.5494C52.1956 33.4198 51.0557 33.3663 49.916 33.3893C48.8558 33.3636 47.7951 33.4145 46.7422 33.5416H46.7305L46.293 33.5944H46.2656C44.6055 33.7673 43.0552 34.5058 41.875 35.6861C40.6947 36.8664 39.9561 38.4166 39.7832 40.0768C39.6836 41.0533 39.6211 43.3326 39.5879 44.9186C38.6205 45.356 37.7846 46.0394 37.1637 46.9006C36.5427 47.7618 36.1583 48.7707 36.0488 49.8268V49.8697C35.873 51.5592 35.7344 51.108 35.7344 54.6705C35.7344 58.233 35.873 58.0865 36.0488 59.776V59.819C36.1951 61.2057 36.8129 62.5002 37.7991 63.486C38.7853 64.4718 40.08 65.0892 41.4668 65.235C43.502 65.4479 46.8574 65.5553 50.0039 65.5553C53.1504 65.5553 56.5078 65.4479 58.543 65.235C59.9313 65.0898 61.2277 64.472 62.2147 63.4849C63.2018 62.4978 63.8197 61.2015 63.9648 59.8131V59.7701C64.1406 58.0807 64.2793 58.2291 64.2793 54.6647C64.2793 51.1002 64.1465 51.5514 63.9707 49.8619ZM44.5312 44.1979C44.5645 42.6647 44.6191 41.1647 44.6797 40.5865C44.7357 40.0531 44.9729 39.555 45.3518 39.1754C45.7307 38.7957 46.2284 38.5576 46.7617 38.5006H46.7891L47.3145 38.442H47.3301C48.1878 38.3373 49.0523 38.2975 49.916 38.3229C50.8717 38.3014 51.8277 38.3451 52.7773 38.4537L53.209 38.5026H53.2461C53.7801 38.5592 54.2784 38.7975 54.6578 39.1775C55.0371 39.5576 55.2744 40.0564 55.3301 40.5904C55.3906 41.1764 55.4453 42.6686 55.4785 44.2018C53.791 44.1276 51.8633 44.0885 50.0098 44.0885C48.1562 44.0885 46.2187 44.1158 44.5352 44.1901L44.5312 44.1979Z" fill="url(#paint1_linear_988_3231)"/>
</g>
<defs>
<linearGradient id="paint0_linear_988_3231" x1="76.5794" y1="70.4163" x2="22.5" y2="13.5" gradientUnits="userSpaceOnUse">
<stop stop-color="#3F1562"/>
<stop offset="0.57" stop-color="#3F1562"/>
<stop offset="1" stop-color="#DABDF2"/>
</linearGradient>
<linearGradient id="paint1_linear_988_3231" x1="61.4282" y1="59.3531" x2="18.1184" y2="22.679" gradientUnits="userSpaceOnUse">
<stop stop-color="#3F1562"/>
<stop offset="0.57" stop-color="#3F1562"/>
<stop offset="1" stop-color="#DABDF2"/>
</linearGradient>
<clipPath id="clip0_988_3231">
<rect width="100" height="100" fill="white"/>
</clipPath>
</defs>
</svg>
