<svg width="40" height="40" viewBox="0 0 40 40" fill="none" xmlns="http://www.w3.org/2000/svg">
<g clip-path="url(#clip0_524_323)">
<path d="M7.5 32.3375H25.4625C29.2625 32.3375 32.3375 29.2625 32.3375 25.4625V7.5C32.3375 3.7125 29.2625 0.625 25.4625 0.625H7.5C5.67765 0.628304 3.93089 1.35369 2.64229 2.64229C1.35369 3.93089 0.628304 5.67765 0.625 7.5V25.4625C0.625 29.2625 3.7125 32.3375 7.5 32.3375ZM10.875 14.6125H14.6125V10.875C14.6125 9.8375 15.45 9 16.4875 9C17.525 9 18.3625 9.8375 18.3625 10.875V14.6125H22.0875C23.125 14.6125 23.9625 15.45 23.9625 16.4875C23.9625 17.525 23.125 18.3625 22.0875 18.3625H18.3625V22.0875C18.3625 23.125 17.525 23.9625 16.4875 23.9625C15.45 23.9625 14.6125 23.125 14.6125 22.0875V18.3625H10.875C9.8375 18.3625 9 17.525 9 16.4875C9 15.45 9.8375 14.6125 10.875 14.6125Z" fill="#3F1562"/>
<path d="M37.5006 14.6088C37.0033 14.6088 36.5264 14.8063 36.1748 15.1579C35.8232 15.5096 35.6256 15.9865 35.6256 16.4838V30C35.6256 33.1013 33.1019 35.625 30.0006 35.625H16.4844C15.9871 35.625 15.5102 35.8226 15.1585 36.1742C14.8069 36.5258 14.6094 37.0027 14.6094 37.5C14.6094 37.9973 14.8069 38.4742 15.1585 38.8258C15.5102 39.1775 15.9871 39.375 16.4844 39.375H30.0006C35.1706 39.375 39.3756 35.17 39.3756 30V16.4838C39.3756 15.9865 39.1781 15.5096 38.8264 15.1579C38.4748 14.8063 37.9979 14.6088 37.5006 14.6088Z" fill="#3F1562"/>
</g>
<defs>
<clipPath id="clip0_524_323">
<rect width="40" height="40" fill="white"/>
</clipPath>
</defs>
</svg>
