<svg width="40" height="40" viewBox="0 0 40 40" fill="none" xmlns="http://www.w3.org/2000/svg">
<path d="M32.9895 10.2916H6.01041C3.79375 10.2916 2 12.0854 2 14.302V33.9895C2 35.0531 2.42252 36.0732 3.17462 36.8253C3.92672 37.5774 4.94678 37.9999 6.01041 37.9999H27.5208V29.6145C27.5208 29.0166 28.0166 28.5208 28.6145 28.5208H36.9999V14.302C36.9999 12.0854 35.2062 10.2916 32.9895 10.2916Z" fill="#3F1562"/>
<path d="M19.5 14.6666C19.2099 14.6666 18.9317 14.5514 18.7266 14.3463C18.5215 14.1411 18.4062 13.8629 18.4062 13.5729V8.10412C18.4062 7.81404 18.5215 7.53584 18.7266 7.33073C18.9317 7.12561 19.2099 7.01038 19.5 7.01038C19.7901 7.01038 20.0683 7.12561 20.2734 7.33073C20.4785 7.53584 20.5937 7.81404 20.5937 8.10412V13.5729C20.5937 13.8629 20.4785 14.1411 20.2734 14.3463C20.0683 14.5514 19.7901 14.6666 19.5 14.6666Z" fill="#FFC107"/>
<path d="M19.5006 8.83332C17.8921 8.83332 16.584 7.5252 16.584 5.91666C16.584 4.30958 17.8921 3 19.5006 3C21.1092 3 22.4173 4.30958 22.4173 5.91666C22.4173 7.5252 21.1092 8.83332 19.5006 8.83332Z" fill="#FFC107"/>
<path d="M30.0716 20.5H8.92578C8.6357 20.5 8.3575 20.3848 8.15238 20.1796C7.94726 19.9745 7.83203 19.6963 7.83203 19.4062C7.83203 19.1162 7.94726 18.838 8.15238 18.6329C8.3575 18.4277 8.6357 18.3125 8.92578 18.3125H30.0716C30.3617 18.3125 30.6398 18.4277 30.845 18.6329C31.0501 18.838 31.1653 19.1162 31.1653 19.4062C31.1653 19.6963 31.0501 19.9745 30.845 20.1796C30.6398 20.3848 30.3617 20.5 30.0716 20.5ZM30.0716 26.3333H8.92578C8.6357 26.3333 8.3575 26.2181 8.15238 26.013C7.94726 25.8078 7.83203 25.5296 7.83203 25.2396C7.83203 24.9495 7.94726 24.6713 8.15238 24.4662C8.3575 24.2611 8.6357 24.1458 8.92578 24.1458H30.0716C30.3617 24.1458 30.6398 24.2611 30.845 24.4662C31.0501 24.6713 31.1653 24.9495 31.1653 25.2396C31.1653 25.5296 31.0501 25.8078 30.845 26.013C30.6398 26.2181 30.3617 26.3333 30.0716 26.3333ZM22.4153 32.1666H8.92578C8.6357 32.1666 8.3575 32.0514 8.15238 31.8463C7.94726 31.6412 7.83203 31.363 7.83203 31.0729C7.83203 30.7828 7.94726 30.5046 8.15238 30.2995C8.3575 30.0944 8.6357 29.9791 8.92578 29.9791H22.4153C22.7054 29.9791 22.9836 30.0944 23.1887 30.2995C23.3938 30.5046 23.5091 30.7828 23.5091 31.0729C23.5091 31.363 23.3938 31.6412 23.1887 31.8463C22.9836 32.0514 22.7054 32.1666 22.4153 32.1666Z" fill="white"/>
<path d="M18.4062 10.2916H6.01041C3.79375 10.2916 2 12.0854 2 14.302V33.9895C2 35.0531 2.42252 36.0732 3.17462 36.8253C3.92672 37.5774 4.94678 37.9999 6.01041 37.9999H19.5V32.1666H8.92707C8.63699 32.1666 8.35879 32.0514 8.15367 31.8462C7.94855 31.6411 7.83332 31.3629 7.83332 31.0728C7.83332 30.7828 7.94855 30.5046 8.15367 30.2994C8.35879 30.0943 8.63699 29.9791 8.92707 29.9791H19.5V26.3333H8.92707C8.63699 26.3333 8.35879 26.218 8.15367 26.0129C7.94855 25.8078 7.83332 25.5296 7.83332 25.2395C7.83332 24.9494 7.94855 24.6712 8.15367 24.4661C8.35879 24.261 8.63699 24.1458 8.92707 24.1458H19.5V20.4999H8.92707C8.63699 20.4999 8.35879 20.3847 8.15367 20.1796C7.94855 19.9745 7.83332 19.6963 7.83332 19.4062C7.83332 19.1161 7.94855 18.8379 8.15367 18.6328C8.35879 18.4277 8.63699 18.3124 8.92707 18.3124H19.5V14.6666C19.2099 14.6666 18.9317 14.5514 18.7266 14.3463C18.5215 14.1411 18.4062 13.8629 18.4062 13.5729V10.2916Z" fill="#3F1562"/>
<path d="M18.4062 8.62036V13.5729C18.4062 14.1766 18.8962 14.6666 19.5 14.6666V8.83328C19.1135 8.83328 18.7446 8.75744 18.4062 8.62036Z" fill="#DEA806"/>
<path d="M19.5006 3C17.8921 3 16.584 4.30958 16.584 5.91666C16.5851 6.68985 16.8928 7.43104 17.4395 7.97777C17.9863 8.5245 18.7275 8.83216 19.5006 8.83332V3Z" fill="#DEA806"/>
<path d="M19.5006 18.3125H8.92773C8.63765 18.3125 8.35945 18.4277 8.15434 18.6329C7.94922 18.838 7.83398 19.1162 7.83398 19.4062C7.83398 19.6963 7.94922 19.9745 8.15434 20.1796C8.35945 20.3848 8.63765 20.5 8.92773 20.5H19.5006V18.3125ZM19.5006 24.1458H8.92773C8.63765 24.1458 8.35945 24.2611 8.15434 24.4662C7.94922 24.6713 7.83398 24.9495 7.83398 25.2396C7.83398 25.5296 7.94922 25.8078 8.15434 26.013C8.35945 26.2181 8.63765 26.3333 8.92773 26.3333H19.5006V24.1458ZM19.5006 29.9791H8.92773C8.63765 29.9791 8.35945 30.0944 8.15434 30.2995C7.94922 30.5046 7.83398 30.7828 7.83398 31.0729C7.83398 31.363 7.94922 31.6412 8.15434 31.8463C8.35945 32.0514 8.63765 32.1666 8.92773 32.1666H19.5006V29.9791Z" fill="white"/>
<path d="M37.0006 28.5209V29.6146C37.0006 29.9063 36.884 30.1834 36.6798 30.3875L29.3881 37.6792C29.1832 37.8844 28.9052 37.9998 28.6152 38H27.5215V29.6146C27.5215 29.0167 28.0173 28.5209 28.6152 28.5209H37.0006Z" fill="#A63BFF"/>
<path d="M31.9577 28.5209H28.6152C28.0173 28.5209 27.5215 29.0167 27.5215 29.6146V38H28.6152C28.9069 38 29.184 37.8834 29.3881 37.6792L31.9563 35.1111L31.9577 28.5209Z" fill="#B965FF"/>
</svg>
