<svg width="40" height="40" viewBox="0 0 40 40" fill="none" xmlns="http://www.w3.org/2000/svg">
<path d="M18.125 6.875V15.625C18.125 16.288 17.8616 16.9239 17.3928 17.3928C16.9239 17.8616 16.288 18.125 15.625 18.125H6.875C6.21196 18.125 5.57607 17.8616 5.10723 17.3928C4.63839 16.9239 4.375 16.288 4.375 15.625V6.875C4.375 6.21196 4.63839 5.57607 5.10723 5.10723C5.57607 4.63839 6.21196 4.375 6.875 4.375H15.625C16.288 4.375 16.9239 4.63839 17.3928 5.10723C17.8616 5.57607 18.125 6.21196 18.125 6.875ZM33.125 4.375H24.375C23.712 4.375 23.0761 4.63839 22.6072 5.10723C22.1384 5.57607 21.875 6.21196 21.875 6.875V15.625C21.875 16.288 22.1384 16.9239 22.6072 17.3928C23.0761 17.8616 23.712 18.125 24.375 18.125H33.125C33.788 18.125 34.4239 17.8616 34.8928 17.3928C35.3616 16.9239 35.625 16.288 35.625 15.625V6.875C35.625 6.21196 35.3616 5.57607 34.8928 5.10723C34.4239 4.63839 33.788 4.375 33.125 4.375ZM15.625 21.875H6.875C6.21196 21.875 5.57607 22.1384 5.10723 22.6072C4.63839 23.0761 4.375 23.712 4.375 24.375V33.125C4.375 33.788 4.63839 34.4239 5.10723 34.8928C5.57607 35.3616 6.21196 35.625 6.875 35.625H15.625C16.288 35.625 16.9239 35.3616 17.3928 34.8928C17.8616 34.4239 18.125 33.788 18.125 33.125V24.375C18.125 23.712 17.8616 23.0761 17.3928 22.6072C16.9239 22.1384 16.288 21.875 15.625 21.875ZM28.75 21.875C27.3903 21.875 26.061 22.2782 24.9305 23.0336C23.7999 23.7891 22.9187 24.8628 22.3983 26.1191C21.878 27.3753 21.7418 28.7576 22.0071 30.0912C22.2724 31.4249 22.9272 32.6499 23.8886 33.6114C24.8501 34.5728 26.0751 35.2276 27.4088 35.4929C28.7424 35.7582 30.1247 35.622 31.3809 35.1017C32.6372 34.5813 33.7109 33.7001 34.4664 32.5695C35.2218 31.439 35.625 30.1097 35.625 28.75C35.625 26.9266 34.9007 25.178 33.6114 23.8886C32.322 22.5993 30.5734 21.875 28.75 21.875Z" fill="#3F1562"/>
</svg>
