<svg width="24" height="24" viewBox="0 0 24 24" fill="none" xmlns="http://www.w3.org/2000/svg">
<path d="M22.9113 13.5303H7.42365C6.82314 13.5303 6.33497 14.0185 6.33497 14.619V18.1666C6.33497 18.768 6.82318 19.2567 7.42365 19.2567H9.17068C9.35718 19.2567 9.50804 19.4081 9.50804 19.5946V21.4491L11.6724 19.3522C11.7352 19.291 11.8194 19.2567 11.9071 19.2567H22.9113C23.5118 19.2567 24 18.768 24 18.1666V14.619C24 14.0185 23.5118 13.5303 22.9113 13.5303ZM12.1361 16.8596C12.2975 16.9525 12.3524 17.1593 12.2594 17.3203C12.2299 17.3717 12.1872 17.4144 12.1359 17.4441C12.0845 17.4738 12.0262 17.4895 11.9669 17.4895C11.9078 17.4893 11.8498 17.4737 11.7987 17.4441L10.9905 16.9772V17.9111C10.9905 18.0976 10.8396 18.249 10.6531 18.249C10.4666 18.249 10.3158 18.0976 10.3158 17.9111V16.9772L9.50757 17.4441C9.4564 17.4736 9.39843 17.4893 9.33938 17.4895C9.28004 17.4895 9.22173 17.4739 9.17036 17.4442C9.11899 17.4145 9.07637 17.3718 9.04682 17.3203C8.95331 17.1593 9.00873 16.9526 9.17021 16.8596L9.97841 16.393L9.17021 15.926C9.1318 15.9039 9.09814 15.8745 9.07114 15.8393C9.04414 15.8042 9.02435 15.7641 9.01288 15.7213C9.00142 15.6785 8.99852 15.6338 9.00434 15.5899C9.01017 15.546 9.0246 15.5036 9.04682 15.4653C9.06893 15.4269 9.09839 15.3932 9.13353 15.3662C9.16866 15.3392 9.20879 15.3194 9.25159 15.308C9.29439 15.2965 9.33903 15.2936 9.38296 15.2994C9.42689 15.3053 9.46923 15.3197 9.50757 15.3419L10.3158 15.8084V14.8759C10.3158 14.6894 10.4666 14.5385 10.6531 14.5385C10.8396 14.5385 10.9905 14.6894 10.9905 14.8759V15.8084L11.7987 15.3419C11.837 15.3197 11.8794 15.3053 11.9233 15.2994C11.9672 15.2936 12.0119 15.2965 12.0547 15.308C12.0975 15.3194 12.1376 15.3392 12.1727 15.3662C12.2079 15.3932 12.2373 15.4269 12.2594 15.4653C12.3524 15.6268 12.2975 15.833 12.1361 15.926L11.3279 16.393L12.1361 16.8596ZM16.6499 16.8596C16.7274 16.9044 16.7839 16.9782 16.807 17.0646C16.8302 17.1511 16.818 17.2432 16.7733 17.3208C16.7436 17.3721 16.701 17.4147 16.6496 17.4443C16.5983 17.4739 16.54 17.4894 16.4808 17.4894C16.4216 17.4892 16.3634 17.4736 16.3121 17.4441L15.5044 16.9771V17.9111C15.5044 18.0976 15.353 18.2489 15.167 18.2489C15.0774 18.2489 14.9915 18.2133 14.9282 18.1499C14.8648 18.0866 14.8292 18.0007 14.8292 17.9111V16.9781L14.0229 17.4441C13.9716 17.4736 13.9134 17.4892 13.8542 17.4894C13.795 17.4894 13.7367 17.4738 13.6854 17.4442C13.6341 17.4146 13.5914 17.3721 13.5617 17.3208C13.517 17.2432 13.5048 17.1511 13.528 17.0646C13.5511 16.9782 13.6076 16.9044 13.6851 16.8596L14.4928 16.393L13.6851 15.926C13.5236 15.833 13.4687 15.6268 13.5617 15.4653C13.6552 15.3038 13.8615 15.2484 14.0229 15.3419L14.8292 15.8075V14.8759C14.8292 14.6894 14.9805 14.5385 15.167 14.5385C15.2565 14.5385 15.3423 14.5741 15.4056 14.6373C15.4688 14.7006 15.5044 14.7864 15.5044 14.8759V15.8084L16.3121 15.3419C16.4736 15.2484 16.6798 15.3038 16.7733 15.4653C16.8663 15.6268 16.8114 15.833 16.6499 15.926L15.8422 16.393L16.6499 16.8596ZM21.1648 16.8596C21.3262 16.9525 21.3817 17.1593 21.2881 17.3203C21.2586 17.3718 21.216 17.4145 21.1646 17.4442C21.1132 17.4739 21.0549 17.4895 20.9956 17.4895C20.9365 17.4893 20.8785 17.4737 20.8274 17.4441L20.0192 16.9772V17.9111C20.0192 18.0976 19.8683 18.249 19.6818 18.249C19.4953 18.249 19.3445 18.0976 19.3445 17.9111V16.9772L18.5363 17.4441C18.4851 17.4737 18.4271 17.4893 18.3681 17.4895C18.3087 17.4895 18.2504 17.4739 18.1991 17.4442C18.1477 17.4145 18.1051 17.3718 18.0755 17.3203C17.982 17.1593 18.0374 16.9526 18.1989 16.8596L19.0071 16.393L18.1989 15.926C18.1605 15.9039 18.1268 15.8745 18.0998 15.8393C18.0728 15.8042 18.053 15.7641 18.0416 15.7213C18.0301 15.6785 18.0272 15.6338 18.033 15.5899C18.0389 15.546 18.0533 15.5036 18.0755 15.4653C18.0976 15.4269 18.1271 15.3932 18.1622 15.3662C18.1974 15.3392 18.2375 15.3194 18.2803 15.308C18.3231 15.2965 18.3677 15.2936 18.4117 15.2994C18.4556 15.3053 18.4979 15.3197 18.5363 15.3419L19.3445 15.8084V14.8759C19.3445 14.6894 19.4953 14.5385 19.6818 14.5385C19.8683 14.5385 20.0192 14.6894 20.0192 14.8759V15.8084L20.8274 15.3419C20.8657 15.3197 20.9081 15.3053 20.952 15.2994C20.9959 15.2936 21.0406 15.2965 21.0834 15.308C21.1262 15.3194 21.1663 15.3392 21.2014 15.3662C21.2366 15.3932 21.266 15.4269 21.2881 15.4653C21.3104 15.5036 21.3248 15.546 21.3306 15.5899C21.3364 15.6338 21.3335 15.6785 21.3221 15.7213C21.3106 15.7641 21.2908 15.8042 21.2638 15.8393C21.2368 15.8745 21.2032 15.9039 21.1648 15.926L20.3566 16.393L21.1648 16.8596ZM9.40589 22.4886C9.34277 22.5495 9.25845 22.5836 9.17072 22.5835C9.12549 22.5836 9.08072 22.5744 9.03917 22.5565C8.97813 22.5308 8.92604 22.4876 8.88943 22.4324C8.85282 22.3772 8.83332 22.3124 8.83336 22.2462V19.9319H7.4237C6.45116 19.9319 5.65977 19.1401 5.65977 18.1665V14.619C5.65977 13.6464 6.45112 12.8551 7.4237 12.8551H17.4804C17.2558 11.8815 16.382 11.1625 15.3526 11.1625H14.366V7.70747C14.366 5.3884 12.4792 3.50156 10.1601 3.50156C7.83959 3.50156 5.95228 5.38835 5.95228 7.70747V11.1625H4.96574C3.76236 11.1625 2.78254 12.1428 2.78254 13.3471V21.2312C2.78254 22.4346 3.76232 23.4139 4.96574 23.4139H15.3525C16.5564 23.4139 17.5357 22.4346 17.5357 21.2312V19.9319H12.044L9.40589 22.4886ZM7.93306 7.70752C7.93306 6.48052 8.93213 5.48238 10.1601 5.48238C11.3871 5.48238 12.3852 6.48047 12.3852 7.70752V11.1625H7.93306V7.70752ZM0.674865 10.1585C0.674865 10.248 0.639314 10.3338 0.576033 10.3971C0.512752 10.4604 0.426925 10.496 0.337432 10.496C0.24794 10.496 0.162113 10.4604 0.0988317 10.3971C0.0355508 10.3338 0 10.248 0 10.1585C0 4.55709 4.55709 0 10.1585 0C14.9085 0 19.0317 3.31223 20.0684 7.91521H22.0028C22.0674 7.9152 22.1306 7.93373 22.1849 7.96858C22.2392 8.00343 22.2824 8.05314 22.3093 8.11181C22.3363 8.17041 22.3459 8.23551 22.337 8.2994C22.3282 8.3633 22.3012 8.42331 22.2592 8.47233L20.1705 10.9119C20.1388 10.949 20.0995 10.9788 20.0553 10.9992C20.011 11.0196 19.9628 11.0301 19.9141 11.03C19.8654 11.03 19.8173 11.0195 19.773 10.9992C19.7288 10.9789 19.6894 10.9493 19.6577 10.9124L17.5675 8.47233C17.5256 8.42331 17.4986 8.3633 17.4897 8.29941C17.4808 8.23551 17.4904 8.17041 17.5174 8.11181C17.5443 8.05314 17.5875 8.00343 17.6418 7.96858C17.6962 7.93373 17.7594 7.9152 17.8239 7.91521H19.3757C18.3538 3.69572 14.5419 0.674818 10.1585 0.674818C4.92925 0.674865 0.674865 4.92925 0.674865 10.1585Z" fill="white"/>
</svg>
