<svg width="40" height="40" viewBox="0 0 40 40" fill="none" xmlns="http://www.w3.org/2000/svg">
<path d="M33.7266 2.39997H6.27422C4.1381 2.39997 2.40039 3.78783 2.40039 5.49372V34.5062C2.40039 36.2122 4.1381 37.6 6.27422 37.6H33.7266C35.8626 37.6 37.6004 36.2122 37.6004 34.5062V5.49372C37.6004 3.78783 35.8626 2.39997 33.7266 2.39997Z" fill="#3F1562"/>
<path d="M33.7223 2.4001H19.9961V37.6001H33.7223C35.8583 37.6001 37.5961 36.2123 37.5961 34.5063V5.49385C37.5961 3.78795 35.8583 2.4001 33.7223 2.4001Z" fill="#3F1562"/>
<path d="M25.0312 9.65942H32.2275C32.797 9.65942 33.2588 9.1977 33.2588 8.62817C33.2588 8.05865 32.797 7.59692 32.2275 7.59692H25.0312C24.4617 7.59692 24 8.05865 24 8.62817C24 9.1977 24.4617 9.65942 25.0312 9.65942Z" fill="white"/>
<path d="M32.2275 11.5723H25.0312C24.4617 11.5723 24 12.034 24 12.6035C24 13.173 24.4617 13.6348 25.0312 13.6348H32.2275C32.797 13.6348 33.2588 13.173 33.2588 12.6035C33.2588 12.034 32.797 11.5723 32.2275 11.5723Z" fill="white"/>
<path d="M28.7021 26.1932H19.9961V28.2557H28.7021C29.2716 28.2557 29.7334 27.794 29.7334 27.2245C29.7334 26.655 29.2716 26.1932 28.7021 26.1932Z" fill="#3F1562"/>
<path d="M11.2949 28.2557H13.1904C13.7599 28.2557 14.2216 27.794 14.2216 27.2245C14.2216 26.655 13.7599 26.1932 13.1904 26.1932H11.2949C10.7254 26.1932 10.2637 26.655 10.2637 27.2245C10.2637 27.794 10.7254 28.2557 11.2949 28.2557Z" fill="#FFB43B"/>
<path d="M13.1904 30.3038H11.2949C10.7254 30.3038 10.2637 30.7656 10.2637 31.3351C10.2637 31.9046 10.7254 32.3663 11.2949 32.3663H13.1904C13.7599 32.3663 14.2216 31.9046 14.2216 31.3351C14.2216 30.7656 13.7599 30.3038 13.1904 30.3038Z" fill="#FFB43B"/>
<path d="M28.7021 30.3038H19.9961V32.3663H28.7021C29.2716 32.3663 29.7334 31.9046 29.7334 31.3351C29.7334 30.7656 29.2716 30.3038 28.7021 30.3038Z" fill="#3F1562"/>
<path d="M13.2742 12.6835H9.04163C7.58289 12.6835 6.40039 13.866 6.40039 15.3248V20.9858C6.40039 21.5554 6.86205 22.0171 7.43164 22.0171H14.8842C15.4537 22.0171 15.9155 21.5554 15.9155 20.9858V15.3248C15.9155 13.866 14.733 12.6835 13.2742 12.6835Z" fill="#D3A0FF"/>
<path d="M13.2726 12.6835H11.1562V22.0171H14.8826C15.4521 22.0171 15.9138 21.5554 15.9138 20.9858V15.3248C15.9138 13.866 14.7313 12.6835 13.2726 12.6835Z" fill="white"/>
<path d="M10.125 12.6834V17.4409C10.125 18.0104 10.5867 18.4722 11.1562 18.4722C11.7258 18.4722 12.1875 18.0104 12.1875 17.4409V12.6834H10.125Z" fill="white"/>
<path d="M11.1562 12.6834V18.4722C11.7258 18.4722 12.1875 18.0104 12.1875 17.4409V12.6834H11.1562Z" fill="#A150E4"/>
<path d="M14.1262 10.357C14.1262 11.9964 12.7972 13.3253 11.1578 13.3253C9.51846 13.3253 8.18945 11.9964 8.18945 10.357C8.18945 8.71756 9.51846 7.38862 11.1578 7.38862C12.7972 7.38862 14.1262 8.71756 14.1262 10.357Z" fill="#FFCCA1"/>
<path d="M14.1246 10.357C14.1246 11.9964 12.7957 13.3253 11.1562 13.3253V7.38862C12.7957 7.38862 14.1246 8.71756 14.1246 10.357Z" fill="#FFB082"/>
<path d="M11.156 4.71812C9.04417 4.71812 7.32617 6.43618 7.32617 8.54797C7.32617 9.1175 7.7879 9.57922 8.35742 9.57922H13.9546C14.5241 9.57922 14.9858 9.1175 14.9858 8.54797C14.9858 6.43618 13.2678 4.71812 11.156 4.71812Z" fill="white"/>
<path d="M11.1562 4.718V9.5791H13.9549C14.5244 9.5791 14.9861 9.11738 14.9861 8.54785C14.9861 6.43606 13.268 4.718 11.1562 4.718Z" fill="#CD92FF"/>
<path d="M12.1875 5.0313C12.1875 4.46178 11.7258 4.00005 11.1562 4.00005C10.5867 4.00005 10.125 4.46178 10.125 5.0313V5.62097C10.125 6.1905 10.5867 6.65222 11.1562 6.65222C11.7258 6.65222 12.1875 6.1905 12.1875 5.62097V5.0313Z" fill="#3F1562"/>
<path d="M12.1875 5.0313C12.1875 4.46178 11.7258 4.00005 11.1562 4.00005V6.65222C11.7258 6.65222 12.1875 6.1905 12.1875 5.62097V5.0313Z" fill="#3F1562"/>
<path d="M14.0557 5.37796C13.5779 5.0681 12.9392 5.20429 12.6293 5.68204L12.2365 6.28772C11.9266 6.76561 12.0627 7.40422 12.5406 7.71408C12.7072 7.82255 12.9018 7.88028 13.1007 7.88025C13.4384 7.88025 13.7694 7.71449 13.9669 7.41007L14.3598 6.80431C14.6697 6.3265 14.5335 5.68788 14.0557 5.37796Z" fill="#3F1562"/>
<path d="M9.68176 5.68209C9.37184 5.20435 8.73322 5.06808 8.25541 5.37801C7.77753 5.68793 7.6414 6.32655 7.95133 6.80437L8.34416 7.41012C8.54161 7.71455 8.87251 7.88037 9.21035 7.88037C9.40257 7.88037 9.5972 7.82654 9.77052 7.7142C10.2483 7.40428 10.3845 6.76566 10.0746 6.28785L9.68176 5.68209Z" fill="#3F1562"/>
<path d="M16.7578 28.2557H28.702C29.2715 28.2557 29.7332 27.794 29.7332 27.2245C29.7332 26.655 29.2715 26.1932 28.702 26.1932H16.7578C16.1883 26.1932 15.7266 26.655 15.7266 27.2245C15.7266 27.794 16.1883 28.2557 16.7578 28.2557Z" fill="white"/>
<path d="M16.7578 32.3663H28.702C29.2715 32.3663 29.7332 31.9046 29.7332 31.3351C29.7332 30.7656 29.2715 30.3038 28.702 30.3038H16.7578C16.1883 30.3038 15.7266 30.7656 15.7266 31.3351C15.7266 31.9046 16.1883 32.3663 16.7578 32.3663Z" fill="white"/>
</svg>
