<svg width="40" height="40" viewBox="0 0 40 40" fill="none" xmlns="http://www.w3.org/2000/svg">
<g filter="url(#filter0_b_309_710)">
<circle cx="20" cy="20" r="20" fill="#B6B6B6"/>
</g>
<path fill-rule="evenodd" clip-rule="evenodd" d="M20 16.2499C17.3766 16.2499 15.25 18.3766 15.25 20.9999C15.25 23.6233 17.3766 25.7499 20 25.7499C22.6234 25.7499 24.75 23.6233 24.75 20.9999C24.75 18.3766 22.6234 16.2499 20 16.2499ZM16.75 20.9999C16.75 19.205 18.2051 17.7499 20 17.7499C21.7949 17.7499 23.25 19.205 23.25 20.9999C23.25 22.7949 21.7949 24.2499 20 24.2499C18.2051 24.2499 16.75 22.7949 16.75 20.9999Z" fill="white"/>
<path fill-rule="evenodd" clip-rule="evenodd" d="M23.6501 10.2411C21.5685 8.39068 18.4315 8.39068 16.3499 10.2411L16.1341 10.4328C15.5419 10.9592 14.7772 11.2499 13.9849 11.2499C11.3699 11.2499 9.25 13.3699 9.25 15.9849V21.0452C9.24999 22.8817 9.24999 24.3213 9.37373 25.4635C9.50001 26.629 9.76232 27.5734 10.3482 28.3797C10.7028 28.8679 11.1321 29.2971 11.6202 29.6518C12.4266 30.2376 13.3709 30.4999 14.5365 30.6262C15.6786 30.75 17.1182 30.75 18.9547 30.7499H21.0453C22.8818 30.75 24.3214 30.75 25.4635 30.6262C26.6291 30.4999 27.5734 30.2376 28.3798 29.6518C28.8679 29.2971 29.2972 28.8679 29.6518 28.3797C30.2377 27.5734 30.5 26.629 30.6263 25.4635C30.75 24.3214 30.75 22.8818 30.75 21.0453V15.9849C30.75 13.3699 28.6301 11.2499 26.0151 11.2499C25.2228 11.2499 24.4581 10.9592 23.8659 10.4328L23.6501 10.2411ZM17.3464 11.3622C18.8597 10.017 21.1403 10.017 22.6536 11.3622L22.8694 11.5539C23.7361 12.3244 24.8554 12.7499 26.0151 12.7499C27.8017 12.7499 29.25 14.1983 29.25 15.9849V20.9999C29.25 22.8915 29.249 24.25 29.135 25.3019C29.0225 26.3398 28.8074 26.99 28.4383 27.498C28.1762 27.8588 27.8589 28.1761 27.4981 28.4383C26.9901 28.8074 26.3399 29.0225 25.302 29.1349C24.25 29.2489 22.8916 29.2499 21 29.2499H19C17.1084 29.2499 15.75 29.2489 14.698 29.1349C13.6601 29.0225 13.0099 28.8074 12.5019 28.4383C12.1411 28.1761 11.8238 27.8588 11.5617 27.498C11.1926 26.99 10.9775 26.3398 10.865 25.3019C10.751 24.25 10.75 22.8915 10.75 20.9999V15.9849C10.75 14.1983 12.1983 12.7499 13.9849 12.7499C15.1446 12.7499 16.2639 12.3244 17.1306 11.5539L17.3464 11.3622Z" fill="white"/>
<path d="M25 16C25 16.5523 25.4477 17 26 17C26.5523 17 27 16.5523 27 16C27 15.4477 26.5523 15 26 15C25.4477 15 25 15.4477 25 16Z" fill="white"/>
<defs>
<filter id="filter0_b_309_710" x="-4" y="-4" width="48" height="48" filterUnits="userSpaceOnUse" color-interpolation-filters="sRGB">
<feFlood flood-opacity="0" result="BackgroundImageFix"/>
<feGaussianBlur in="BackgroundImageFix" stdDeviation="2"/>
<feComposite in2="SourceAlpha" operator="in" result="effect1_backgroundBlur_309_710"/>
<feBlend mode="normal" in="SourceGraphic" in2="effect1_backgroundBlur_309_710" result="shape"/>
</filter>
</defs>
</svg>
